<svg width="97" height="101" viewBox="0 0 97 101" fill="none" xmlns="http://www.w3.org/2000/svg">
<g clip-path="url(#clip0_1215_4051)">
<path d="M96.2266 22.0214C96.1859 21.9807 96.1452 21.9807 96.0638 21.94C96.0231 21.8993 95.9824 21.8993 95.9417 21.8586L49.1309 0.122115C48.7239 -0.040705 48.2354 -0.040705 47.8284 0.122115L1.01762 21.8586C0.97692 21.8586 0.936215 21.8993 0.89551 21.94C0.854805 21.9807 0.8141 21.9807 0.773395 22.0214C0.284935 22.3063 0 22.8355 0 23.4054V78.6013C0 79.2933 0.40705 79.8632 1.01762 80.1481L47.8284 100.216C48.0319 100.297 48.2761 100.338 48.4796 100.338C48.7239 100.338 48.9274 100.297 49.1309 100.216L95.9417 80.1481C96.5522 79.8632 96.9593 79.2933 96.9593 78.6013V23.4054C97 22.8355 96.7151 22.3063 96.2266 22.0214ZM48.4796 3.50063L91.2199 23.324L79.1305 28.4935L34.7621 9.89131L48.4796 3.50063ZM30.6509 11.8044L74.8972 30.3659L68.303 33.1746L24.3416 14.7352L30.6509 11.8044ZM76.9324 33.0932V45.7931L70.2568 49.1309V35.9832L76.9324 33.0932ZM46.8107 96.1452L3.33781 77.5023V25.9698L46.8107 44.572V96.1452ZM48.4796 41.6412L5.7394 23.324L20.149 16.6483L63.9883 35.0063L48.4796 41.6412ZM93.6622 77.5023L50.1893 96.1452V44.572L66.919 37.4079V51.8175C66.919 52.7537 67.6517 53.4864 68.5879 53.4864C68.8728 53.4864 69.1171 53.405 69.3613 53.3235L78.9677 48.5204C79.7818 48.1133 80.311 47.2585 80.311 46.3223V31.6685L93.7029 25.9291V77.5023H93.6622Z" fill="black"/>
<path d="M76.9325 33.0931V45.7931L70.2568 49.1309V35.9832L76.9325 33.0931Z" fill="#F2D012"/>
<path d="M74.8971 30.3659L68.2622 33.1746L24.3008 14.7352L30.6508 11.8044L74.8971 30.3659Z" fill="#F2D012"/>
<path d="M91.2198 23.3647L79.1711 28.5342L34.762 9.89129L48.4795 3.50061L91.2198 23.3647Z" fill="#B2B7F1"/>
<path d="M63.9882 35.0063L48.4796 41.6412L5.78003 23.3646L20.1896 16.6483L63.9882 35.0063Z" fill="#B2B7F1"/>
<path d="M93.6621 25.9697V77.5022L50.1892 96.1451V44.5719L66.919 37.4078V51.8174C66.919 52.7536 67.6516 53.4863 68.5879 53.4863C68.8728 53.4863 69.117 53.4049 69.3613 53.3235L78.9676 48.5203C79.8224 48.1132 80.3516 47.2584 80.3516 46.3222V31.6684L93.6621 25.9697Z" fill="#7C54E9"/>
<path d="M46.8108 44.5719V96.1451L3.33789 77.5022V25.9697L46.8108 44.5719Z" fill="#F2D012"/>
<path d="M35.0878 70.3789C35.3728 70.5417 35.6577 70.7859 35.8612 71.1116C36.4718 71.9664 36.6346 73.0654 36.1869 73.5132C33.4189 76.4846 30.1218 77.1766 26.4177 75.5891C26.2956 75.5484 26.2142 75.5077 26.092 75.4263C25.7257 75.2635 25.3593 75.0599 24.9523 74.8564C19.2129 71.5186 14.7353 64.1103 14.5725 63.744C14.0027 62.8077 14.0027 61.7901 14.5318 61.4645C14.8168 61.3017 15.1831 61.3424 15.5494 61.5459C15.9158 61.7494 16.2414 62.1158 16.5264 62.5635C16.6078 62.6856 20.3933 68.9949 25.0337 71.6814C25.3186 71.8443 25.6036 72.0071 25.8885 72.1292C28.86 73.5132 31.5872 72.9026 33.9481 70.3789C34.233 70.0939 34.6401 70.0939 35.0878 70.3789Z" fill="black"/>
<path d="M10.0542 39.7281C10.2578 39.8502 10.4206 40.013 10.6241 40.1758L20.1898 50.6777C20.6375 51.1662 20.9225 51.8174 21.0039 52.3873C21.0446 52.9572 20.8818 53.4049 20.5154 53.5678L12.3337 56.6206C12.1302 56.702 11.886 56.6613 11.6417 56.5799C11.601 56.5392 11.5196 56.5392 11.4789 56.4985C11.0719 56.2543 10.6648 55.8472 10.4206 55.3181C9.93213 54.3411 10.0135 53.4049 10.6241 53.2014L17.0962 50.7998L9.56579 42.5367C8.8738 41.7633 8.54816 40.6643 8.8738 40.013C8.99592 39.4838 9.48438 39.4431 10.0542 39.7281Z" fill="black"/>
<path d="M36.7974 51.2882C37.2044 51.5324 37.6115 51.9802 37.8964 52.5094C38.3849 53.4863 38.2628 54.4225 37.6522 54.626L31.1801 56.8648L38.7512 65.3314C39.4432 66.1048 39.7281 67.2446 39.4025 67.8145C39.199 68.2215 38.7919 68.3029 38.3035 68.0994C38.2628 68.0587 38.1813 68.0587 38.1406 68.018C37.9371 67.8959 37.7336 67.733 37.5708 67.5295L28.0051 56.8241C27.5573 56.3356 27.2724 55.6844 27.2317 55.1145C27.191 54.5446 27.3945 54.0969 27.7609 53.9748L35.9833 51.1254C36.1868 51.0847 36.5124 51.1254 36.7974 51.2882Z" fill="black"/>
</g>
<defs>
<clipPath id="clip0_1215_4051">
<rect width="97" height="100.338" fill="white"/>
</clipPath>
</defs>
</svg>
