<svg width="20" height="20" viewBox="0 0 20 20" fill="none" xmlns="http://www.w3.org/2000/svg">
<path d="M12.8273 3.37812L12.4928 3.74977L12.8273 3.37812ZM16.1263 6.3472L15.7918 6.71885L16.1263 6.3472ZM18.0448 8.46183L17.5881 8.66525V8.66525L18.0448 8.46183ZM2.64281 17.3571L2.99637 17.0035H2.99637L2.64281 17.3571ZM17.3569 17.3571L17.0033 17.0035L17.3569 17.3571ZM11.6665 18.3334V17.8334H8.33317V18.3334V18.8334H11.6665V18.3334ZM1.6665 11.6667H2.1665V8.33341H1.6665H1.1665V11.6667H1.6665ZM18.3332 11.3025H17.8332V11.6667H18.3332H18.8332V11.3025H18.3332ZM12.8273 3.37812L12.4928 3.74977L15.7918 6.71885L16.1263 6.3472L16.4607 5.97555L13.1618 3.00647L12.8273 3.37812ZM18.3332 11.3025H18.8332C18.8332 9.88449 18.8433 9.0256 18.5016 8.25841L18.0448 8.46183L17.5881 8.66525C17.8231 9.19288 17.8332 9.79616 17.8332 11.3025H18.3332ZM16.1263 6.3472L15.7918 6.71885C16.9114 7.72654 17.3531 8.13761 17.5881 8.66525L18.0448 8.46183L18.5016 8.25841C18.1599 7.49122 17.5147 6.92415 16.4607 5.97555L16.1263 6.3472ZM8.358 1.66675V2.16675C9.66669 2.16675 10.1917 2.17447 10.6617 2.35482L10.8409 1.88801L11.02 1.4212C10.3368 1.15903 9.59097 1.16675 8.358 1.16675V1.66675ZM12.8273 3.37812L13.1618 3.00647C12.2498 2.1857 11.7031 1.68335 11.02 1.4212L10.8409 1.88801L10.6617 2.35482C11.1318 2.53521 11.525 2.87875 12.4928 3.74977L12.8273 3.37812ZM8.33317 18.3334V17.8334C6.74769 17.8334 5.60887 17.8324 4.74222 17.7158C3.88995 17.6012 3.37614 17.3833 2.99637 17.0035L2.64281 17.3571L2.28926 17.7107C2.8858 18.3072 3.64582 18.5774 4.60897 18.7069C5.55775 18.8345 6.77596 18.8334 8.33317 18.8334V18.3334ZM1.6665 11.6667H1.1665C1.1665 13.224 1.16544 14.4422 1.293 15.3909C1.42249 16.3541 1.69272 17.1141 2.28926 17.7107L2.64281 17.3571L2.99637 17.0035C2.6166 16.6238 2.39867 16.11 2.28408 15.2577C2.16757 14.391 2.1665 13.2522 2.1665 11.6667H1.6665ZM11.6665 18.3334V18.8334C13.2237 18.8334 14.4419 18.8345 15.3907 18.7069C16.3539 18.5774 17.1139 18.3072 17.7104 17.7107L17.3569 17.3571L17.0033 17.0035C16.6235 17.3833 16.1097 17.6012 15.2575 17.7158C14.3908 17.8324 13.252 17.8334 11.6665 17.8334V18.3334ZM18.3332 11.6667H17.8332C17.8332 13.2522 17.8321 14.391 17.7156 15.2577C17.601 16.11 17.3831 16.6238 17.0033 17.0035L17.3569 17.3571L17.7104 17.7107C18.307 17.1141 18.5772 16.3541 18.7067 15.3909C18.8342 14.4422 18.8332 13.224 18.8332 11.6667H18.3332ZM1.6665 8.33341H2.1665C2.1665 6.74793 2.16757 5.60912 2.28408 4.74247C2.39867 3.8902 2.6166 3.37638 2.99637 2.99661L2.64281 2.64306L2.28926 2.28951C1.69272 2.88605 1.42249 3.64606 1.293 4.60922C1.16544 5.55799 1.1665 6.7762 1.1665 8.33341H1.6665ZM8.358 1.66675V1.16675C6.79246 1.16675 5.56821 1.1657 4.61548 1.29321C3.64874 1.42259 2.88619 1.69258 2.28926 2.28951L2.64281 2.64306L2.99637 2.99661C3.37575 2.61723 3.89117 2.39906 4.74813 2.28437C5.6191 2.1678 6.76429 2.16675 8.358 2.16675V1.66675Z" fill="#7C54E9"/>
<path d="M10.8335 2.08325V4.16659C10.8335 6.13077 10.8335 7.11286 11.4437 7.72306C12.0539 8.33325 13.036 8.33325 15.0002 8.33325H18.3335" stroke="#7C54E9"/>
<path d="M7.08333 15.4167L7.08333 11.25M7.08333 11.25L5.41667 12.8125M7.08333 11.25L8.75 12.8125" stroke="#7C54E9" stroke-linecap="round" stroke-linejoin="round"/>
</svg>
