<svg width="135" height="132" viewBox="0 0 135 132" fill="none" xmlns="http://www.w3.org/2000/svg">
<path d="M19.5 49.5C19.5 33.9436 19.5 26.1655 24.3327 21.3327C29.1655 16.5 36.9436 16.5 52.5 16.5H85.5C101.056 16.5 108.835 16.5 113.667 21.3327C118.5 26.1655 118.5 33.9437 118.5 49.5V77C118.5 87.3709 118.5 92.5563 115.278 95.7782C112.056 99 106.871 99 96.5 99H41.5C31.1291 99 25.9437 99 22.7218 95.7782C19.5 92.5563 19.5 87.3709 19.5 77V49.5Z" stroke="white" stroke-width="7"/>
<path d="M124 115.5H14" stroke="white" stroke-width="7" stroke-linecap="round"/>
<path d="M85.5 82.5H52.5" stroke="white" stroke-width="7" stroke-linecap="round"/>
<rect x="17" y="15" width="6" height="22" fill="#B2B7F1"/>
<path fill-rule="evenodd" clip-rule="evenodd" d="M8.63153 23.4874C13.3739 15.0791 15.745 10.875 19.5 10.875C23.255 10.875 25.6261 15.0791 30.3685 23.4874L30.9594 24.5352C34.9003 31.5224 36.8707 35.016 35.0898 37.5705C33.309 40.125 28.903 40.125 20.0909 40.125H18.909C10.097 40.125 5.69103 40.125 3.91017 37.5705C2.12931 35.016 4.09973 31.5224 8.04058 24.5352L8.63153 23.4874ZM19.5 17.7812C20.1731 17.7812 20.7188 18.3269 20.7188 19V27.125C20.7188 27.7981 20.1731 28.3438 19.5 28.3438C18.8269 28.3438 18.2812 27.7981 18.2812 27.125V19C18.2812 18.3269 18.8269 17.7812 19.5 17.7812ZM19.5 33.625C20.3975 33.625 21.125 32.8975 21.125 32C21.125 31.1025 20.3975 30.375 19.5 30.375C18.6025 30.375 17.875 31.1025 17.875 32C17.875 32.8975 18.6025 33.625 19.5 33.625Z" fill="white"/>
</svg>
